<svg width="800" height="600" viewBox="0 0 800 600" fill="none" xmlns="http://www.w3.org/2000/svg">
<g filter="url(#filter0_d)">
<path d="M183.957 61.4802C188.869 60.6182 192.12 58.543 198.632 60.6501C194.334 49.1459 184.299 26.1907 177.304 15.5485C176.7 14.6439 175.965 13.8777 175.19 13.2285C175.14 13.1966 175.1 13.1433 175.069 13.1114C172.16 10.7808 168.416 10.2593 165.9 12.1536C165.86 12.1749 165.819 12.2068 165.779 12.2281C162.518 14.6545 162.357 19.7841 164.994 23.6791C170.842 32.4589 180.173 52.147 183.957 61.4802Z" fill="#EC693C"/>
<path d="M380.614 353.258C380.514 353.002 380.403 352.747 380.282 352.513C380.191 352.215 380.081 351.917 379.96 351.608C371.636 331.601 359.789 313.488 348.345 295.96C341.752 285.871 334.928 275.442 328.878 264.778C325.003 257.978 321.4 250.635 318.169 242.951C315.874 237.524 314.163 233.852 311.344 232.33C309.613 231.383 307.65 230.894 305.698 230.894C302.608 230.894 299.759 232.107 297.676 234.32C294.243 237.949 291.344 242.621 288.556 247.144C286.684 250.177 284.913 253.029 282.99 255.605C278.34 261.83 273.468 268.045 268.748 274.048C253.851 293.001 238.451 313.413 228.084 336.368C216.79 361.356 214.646 388.611 214.868 413.514C214.918 419.154 210.61 423.752 205.266 423.752H187.611C182.578 423.752 178.411 419.59 178.16 414.28C177.203 394.177 177.364 375.532 181.652 355.29C186.383 332.984 195.764 311.093 209.533 291.011C215.744 281.965 222.578 272.898 229.201 264.321C246.04 242.483 263.453 219.804 272.291 192.039C278.159 173.607 278.008 152.95 271.868 133.954C266.151 116.256 252.673 101.655 233.942 92.8961C222.85 87.7134 211.264 85.0635 199.518 85.0635C169.544 85.0635 141.008 102.229 123.203 130.985C112.372 148.47 105.548 170.627 102.317 198.722C102.005 201.489 101.723 204.246 101.451 206.981C100.465 216.878 99.5289 226.222 96.7509 235.629C93.2381 247.559 87.3398 258.627 82.0353 267.875C76.0968 278.241 69.3228 288.298 62.7702 298.025C56.9726 306.634 50.9837 315.52 45.5685 324.63C33.631 344.701 25.156 367.124 20.385 391.272C10.8128 439.757 17.0735 488.275 37.5867 524.384C62.73 568.666 108.316 583.225 142.136 587.631C143.494 587.812 145.085 588.078 146.806 588.365C151.003 589.078 156.217 589.961 160.907 589.961C165.165 589.961 168.376 589.248 170.741 587.79C173.68 585.971 175.442 583.619 175.975 580.799C176.942 575.658 173.57 570.124 170.52 565.878C161.823 553.767 160.535 536.878 167.249 522.852C172.926 510.975 184.964 503.313 197.928 503.313C199.941 503.313 201.954 503.494 203.937 503.866C216.287 506.154 225.577 517.03 228.778 532.972C230.006 539.081 229.704 546.158 227.892 553.427C227.148 556.428 225.92 559.472 224.017 563.015C223.333 564.303 222.367 565.527 221.36 566.815C219.709 568.922 218.008 571.103 217.294 573.838C216.368 577.404 216.831 580.66 218.622 583.268C220.957 586.63 225.457 588.77 230.681 588.993C242.377 589.472 254.374 589.121 266.241 587.95C314.072 583.225 352.28 560.951 373.82 525.225C401.329 479.602 403.996 412.098 380.614 353.258Z" fill="#EC693C"/>
<path d="M503.714 282.657C503.714 283.976 503.351 285.179 502.626 286.243C501.902 287.307 500.764 288.67 499.224 290.298C497.634 291.926 496.416 293.352 495.581 294.576C494.735 295.789 494.312 297.205 494.312 298.78C494.312 300.259 494.755 301.515 495.651 302.558C496.537 303.601 497.684 304.122 499.084 304.122C500.815 304.122 502.053 303.547 502.798 302.409C503.542 301.259 503.925 299.801 503.925 298.014C503.925 297.194 503.854 296.407 503.703 295.64H517C517.05 296.002 517.09 296.396 517.141 296.854C517.191 297.311 517.211 297.875 517.211 298.546C517.211 301.749 516.315 304.58 514.534 307.028C512.752 309.475 510.467 311.359 507.669 312.679C504.881 313.998 502.002 314.669 499.073 314.669H496.326C493.336 314.669 490.498 313.966 487.83 312.561C485.153 311.157 483.019 309.209 481.399 306.719C479.788 304.218 478.973 301.366 478.973 298.163C478.973 293.214 481.026 289.191 485.123 286.084L488.163 283.785C489.219 282.976 490.005 282.274 490.508 281.688C491.011 281.092 491.293 280.475 491.343 279.805V278.145H503.703V282.657H503.714ZM504.287 261.415V275.399H490.478V261.415H504.287V261.415Z" fill="#EC693C"/>
<path d="M550.195 244.44C553.346 246.101 555.842 248.591 557.674 251.933C559.506 255.274 560.422 259.361 560.422 264.203H546.179V261.532C546.179 259.18 545.495 257.328 544.116 255.945C542.737 254.572 541.016 253.88 538.952 253.88H538.59C536.567 253.88 534.856 254.625 533.457 256.104C532.068 257.573 531.363 259.382 531.363 261.532V276.271C531.363 278.41 532.058 280.22 533.457 281.699C534.856 283.178 536.567 283.912 538.59 283.912H539.597C541.67 283.912 543.391 283.231 544.76 281.89C546.139 280.539 546.824 278.666 546.824 276.271V273.749H560.412C560.412 278.229 559.526 282.146 557.775 285.519C556.013 288.872 553.598 291.447 550.508 293.235C547.428 295.023 543.935 295.906 540.029 295.906H538.006C533.708 295.906 529.823 294.991 526.33 293.15C522.838 291.319 520.08 288.669 518.057 285.2C516.034 281.741 515.027 277.665 515.027 272.972V264.873C515.027 260.436 516.054 256.477 518.097 252.986C520.14 249.496 522.878 246.792 526.3 244.845C529.712 242.919 533.427 241.95 537.433 241.95H539.456C543.462 241.961 547.035 242.791 550.195 244.44Z" fill="#EC693C"/>
<path d="M601.76 276.772C601.76 277.729 601.982 278.453 602.404 278.911C602.837 279.368 603.371 279.592 604.005 279.592C604.911 279.592 605.766 279.358 606.531 278.911V287.084C604.991 288.254 602.555 288.84 599.234 288.84C596.144 288.84 593.788 288.318 592.158 287.275C590.517 286.232 589.339 284.7 588.615 282.657C587.799 283.976 586.451 285.339 584.569 286.743C582.696 288.148 580.613 288.84 578.358 288.84H576.325C574.352 288.84 572.53 288.329 570.87 287.307C569.209 286.296 567.9 284.902 566.924 283.146C565.968 281.39 565.485 279.464 565.485 277.378V249.027H579.798V273.483C579.798 274.76 580.17 275.846 580.925 276.729C581.67 277.612 582.576 278.07 583.632 278.07C584.689 278.07 585.595 277.623 586.34 276.729C587.085 275.846 587.467 274.76 587.467 273.483V249.027H601.78V276.772H601.76Z" fill="#EC693C"/>
<path d="M642.917 259.691C645.877 261.99 647.366 264.97 647.366 268.63V284.764C647.366 285.722 647.588 286.446 648.011 286.903C648.443 287.361 648.977 287.584 649.601 287.584C650.517 287.584 651.362 287.35 652.127 286.903V295.076C650.577 296.247 648.151 296.832 644.83 296.832C641.74 296.832 639.304 296.279 637.533 295.183C635.741 294.087 634.644 292.575 634.211 290.639C632.671 292.522 630.97 294.023 629.118 295.14C627.266 296.258 624.981 296.822 622.294 296.822C618.439 296.822 615.308 296.034 612.892 294.459C610.487 292.873 609.279 289.766 609.279 285.137C609.279 281.625 610.215 278.911 612.097 276.995C613.98 275.09 616.657 273.76 620.16 273.026C623.652 272.281 628.101 271.919 633.486 271.919V269.695C633.486 268.279 633.043 267.151 632.158 266.332C631.262 265.523 630.145 265.119 628.796 265.119C627.689 265.119 626.642 265.459 625.645 266.14C624.659 266.832 624.166 267.683 624.166 268.705V269.014H610.437C610.386 268.865 610.356 268.503 610.356 267.939C610.356 265.746 611.071 263.767 612.49 262.022C613.909 260.266 615.932 258.861 618.559 257.818C621.186 256.775 624.236 256.254 627.699 256.254H630.084C635.68 256.254 639.958 257.403 642.917 259.691ZM626.471 280.209C624.981 281.103 624.236 282.338 624.236 283.913C624.236 286.36 625.676 287.584 628.574 287.584C629.923 287.584 631.081 287.084 632.047 286.094C633.003 285.094 633.486 283.817 633.486 282.242V278.879C630.306 278.868 627.97 279.315 626.471 280.209ZM642.887 241.28L633.778 252.124H625.253L631.825 241.046H642.736L642.887 241.28Z" fill="#EC693C"/>
<path d="M687.145 250.56C688.806 251.582 690.114 252.965 691.08 254.732C692.047 256.488 692.53 258.414 692.53 260.5V288.851H678.217V264.406C678.217 263.129 677.844 262.043 677.09 261.16C676.345 260.266 675.439 259.819 674.382 259.819C673.315 259.819 672.419 260.266 671.674 261.16C670.93 262.043 670.547 263.129 670.547 264.406V288.851H656.244V249.804H667.014L668.463 255.455C671.121 251.177 674.845 249.038 679.666 249.038H681.689C683.672 249.028 685.484 249.538 687.145 250.56Z" fill="#EC693C"/>
<path d="M715.952 255.221H724.618V266.065H715.952V280.507C715.952 282.55 716.324 283.934 717.069 284.679C717.814 285.413 718.821 285.785 720.069 285.785C720.642 285.785 721.407 285.7 722.343 285.519C723.28 285.338 724.014 285.126 724.548 284.87V293.437C723.441 293.948 721.901 294.352 719.928 294.661C717.955 294.959 716.264 295.119 714.865 295.119C710.627 295.119 707.356 294.31 705.071 292.671C702.786 291.043 701.639 288.265 701.639 284.338V266.076H697.593V255.232H702.213L707.205 242.78H715.952V255.221V255.221Z" fill="#EC693C"/>
<path d="M759.344 251.135C762.263 252.784 764.547 255.094 766.208 258.052C767.869 261 768.704 264.363 768.704 268.141V269.748C768.704 273.569 767.879 276.953 766.208 279.911C764.547 282.859 762.263 285.158 759.344 286.786C756.425 288.414 753.163 289.234 749.55 289.234H747.235C743.622 289.234 740.35 288.404 737.441 286.754C734.522 285.105 732.238 282.785 730.577 279.837C728.916 276.878 728.081 273.515 728.081 269.748V268.141C728.081 264.363 728.916 261 730.577 258.052C732.238 255.094 734.533 252.795 737.441 251.135C740.35 249.475 743.622 248.645 747.235 248.645H749.55C753.163 248.645 756.425 249.475 759.344 251.135ZM744.85 259.457C743.883 260.5 743.41 261.766 743.41 263.246V274.633C743.41 276.112 743.883 277.368 744.85 278.411C745.816 279.454 746.993 279.975 748.393 279.975C749.792 279.975 750.979 279.454 751.936 278.411C752.892 277.368 753.375 276.112 753.375 274.633V263.246C753.375 261.777 752.892 260.5 751.936 259.457C750.969 258.425 749.792 257.893 748.393 257.893C746.993 257.893 745.816 258.425 744.85 259.457Z" fill="#EC693C"/>
<path d="M611.161 309.285C613.496 310.711 615.348 312.669 616.687 315.127C618.036 317.607 618.71 320.289 618.71 323.194V324.875C618.71 327.781 618.036 330.463 616.687 332.942C615.338 335.411 613.496 337.359 611.161 338.785C608.826 340.211 606.28 340.924 603.542 340.924H592.339V359.569H577.16V307.146H603.542C606.28 307.146 608.816 307.859 611.161 309.285ZM592.329 329.239H598.982C600.331 329.239 601.388 328.76 602.163 327.823C602.938 326.887 603.32 325.823 603.32 324.652V323.737C603.32 322.566 602.948 321.502 602.203 320.565C601.458 319.629 600.391 319.15 598.992 319.15H592.339V329.239H592.329Z" fill="#EC693C"/>
<path d="M652.711 315.319C655.378 316.819 657.432 318.905 658.851 321.555C660.28 324.205 660.985 327.238 660.985 330.643V335.379H636.918V339.051C636.918 340.786 637.442 342.116 638.468 343.02C639.505 343.936 640.834 344.393 642.474 344.393C644.165 344.393 645.454 343.85 646.34 342.754C647.235 341.658 647.678 340.147 647.678 338.199H660.894C660.894 341.105 660.179 343.733 658.77 346.075C657.341 348.427 655.278 350.268 652.55 351.619C649.832 352.971 646.611 353.652 642.907 353.652H641.82C637.965 353.652 634.513 352.896 631.453 351.396C628.393 349.895 625.977 347.703 624.226 344.83C622.465 341.956 621.589 338.529 621.589 334.549V332.187C621.589 328.217 622.414 324.78 624.085 321.906C625.746 319.022 628.071 316.841 631.06 315.329C634.04 313.829 637.462 313.073 641.317 313.073H643.129C646.843 313.073 650.033 313.818 652.711 315.319ZM638.368 323.875C637.401 324.918 636.918 326.184 636.918 327.664V328.739H646.893V327.664C646.893 326.195 646.41 324.929 645.444 323.875C644.477 322.843 643.3 322.311 641.901 322.311C640.512 322.321 639.324 322.843 638.368 323.875Z" fill="#EC693C"/>
<path d="M696.143 316.233C697.905 318.096 698.781 320.65 698.781 323.917V325.215L698.64 328.121L698.489 330.026H686.783V328.195C686.783 327.131 686.481 326.216 685.887 325.482C685.283 324.737 684.578 324.364 683.753 324.364C682.887 324.364 682.153 324.726 681.559 325.482C680.955 326.216 680.653 327.12 680.653 328.195V353.258H666.702V314.211H677.402L678.992 319.862C679.284 319.256 679.837 318.436 680.653 317.415C681.468 316.393 682.585 315.478 683.974 314.658C685.373 313.85 686.964 313.435 688.745 313.435C691.916 313.445 694.392 314.382 696.143 316.233Z" fill="#EC693C"/>
<path d="M735.026 316.511C737.995 318.809 739.475 321.778 739.475 325.45V341.584C739.475 342.552 739.696 343.265 740.119 343.723C740.552 344.18 741.085 344.404 741.709 344.404C742.625 344.404 743.471 344.17 744.236 343.723V351.896C742.686 353.067 740.26 353.652 736.938 353.652C733.848 353.652 731.412 353.109 729.641 352.002C727.849 350.906 726.742 349.395 726.309 347.458C724.769 349.342 723.068 350.842 721.216 351.96C719.364 353.077 717.079 353.641 714.382 353.641C710.527 353.641 707.396 352.854 704.981 351.268C702.575 349.682 701.367 346.575 701.367 341.945C701.367 338.434 702.313 335.72 704.185 333.804C706.068 331.899 708.745 330.569 712.238 329.835C715.73 329.09 720.179 328.728 725.574 328.728V326.504C725.574 325.088 725.132 323.96 724.236 323.151C723.34 322.332 722.223 321.927 720.874 321.927C719.767 321.927 718.71 322.257 717.723 322.949C716.737 323.641 716.244 324.492 716.244 325.514V325.812H702.515C702.464 325.663 702.444 325.301 702.444 324.748C702.444 322.555 703.159 320.587 704.578 318.831C705.997 317.075 708.02 315.67 710.647 314.627C713.275 313.584 716.324 313.062 719.787 313.062H722.172C727.789 313.073 732.067 314.212 735.026 316.511ZM718.579 337.029C717.089 337.923 716.344 339.157 716.344 340.732C716.344 343.18 717.784 344.404 720.683 344.404C722.031 344.404 723.189 343.904 724.145 342.914C725.101 341.914 725.584 340.636 725.584 339.061V335.698C722.414 335.688 720.079 336.135 718.579 337.029Z" fill="#EC693C"/>
<path d="M775.861 308.869C778.538 310.274 780.672 312.221 782.293 314.712C783.903 317.202 784.708 320.054 784.708 323.268C784.708 326.014 784.145 328.366 783.007 330.302C781.88 332.239 780.37 333.921 778.488 335.347L775.529 337.635C774.371 338.55 773.556 339.274 773.073 339.806C772.59 340.338 772.348 340.934 772.348 341.604V343.286H759.988V338.784C759.988 337.465 760.35 336.262 761.075 335.187C761.799 334.112 762.927 332.771 764.477 331.143C766.067 329.515 767.285 328.089 768.121 326.865C768.956 325.631 769.389 324.247 769.389 322.661C769.389 321.182 768.946 319.916 768.05 318.873C767.154 317.84 766.007 317.308 764.618 317.308C762.836 317.308 761.608 317.894 760.934 319.064C760.259 320.235 759.917 321.789 759.917 323.726V324.8C759.917 325.205 759.947 325.535 759.998 325.801H746.701C746.651 325.439 746.601 325.024 746.55 324.566C746.5 324.109 746.48 323.555 746.48 322.885C746.48 319.671 747.366 316.851 749.157 314.403C750.939 311.955 753.234 310.072 756.022 308.752C758.82 307.432 761.679 306.773 764.628 306.773H767.376C770.355 306.762 773.183 307.464 775.861 308.869ZM773.435 345.968V359.941H759.635V345.968H773.435Z" fill="#EC693C"/>
<path d="M543.311 352.917H560.13V347.202H558.781L546.521 332.047L558.056 318.308H559.918V312.572H544.74V318.308H548.222L543.059 326.45H540.744L535.59 318.308H539.073V312.572H522.395V318.308H523.744L535.842 333.282L524.136 347.202H522.294V352.917H537.624V347.202H533.879L539.335 339.039H541.6L547.035 347.202H543.311V352.917Z" fill="#EC693C"/>
</g>
<defs>
<filter id="filter0_d" x="12" y="11" width="776.708" height="586.961" filterUnits="userSpaceOnUse" color-interpolation-filters="sRGB">
<feFlood flood-opacity="0" result="BackgroundImageFix"/>
<feColorMatrix in="SourceAlpha" type="matrix" values="0 0 0 0 0 0 0 0 0 0 0 0 0 0 0 0 0 0 127 0"/>
<feOffset dy="4"/>
<feGaussianBlur stdDeviation="2"/>
<feColorMatrix type="matrix" values="0 0 0 0 0 0 0 0 0 0 0 0 0 0 0 0 0 0 0.25 0"/>
<feBlend mode="normal" in2="BackgroundImageFix" result="effect1_dropShadow"/>
<feBlend mode="normal" in="SourceGraphic" in2="effect1_dropShadow" result="shape"/>
</filter>
</defs>
</svg>
