<svg width="232" height="119" viewBox="0 0 232 119" fill="none" xmlns="http://www.w3.org/2000/svg">
<path d="M112.439 53.3507C112.439 53.8831 112.286 54.3627 111.978 54.7932C111.67 55.2238 111.187 55.7701 110.532 56.4256C109.857 57.0812 109.338 57.6543 108.981 58.1469C108.621 58.6367 108.442 59.2034 108.442 59.8395C108.442 60.4339 108.631 60.9394 109.011 61.3607C109.388 61.7802 109.876 61.9913 110.472 61.9913C111.208 61.9913 111.735 61.7607 112.053 61.3005C112.371 60.8376 112.532 60.2496 112.532 59.5311C112.532 59.2033 112.502 58.883 112.439 58.5784H118.097C118.117 58.7237 118.137 58.883 118.159 59.0682C118.18 59.2543 118.189 59.4783 118.189 59.7469C118.189 61.0376 117.809 62.1765 117.051 63.1607C116.294 64.144 115.32 64.9014 114.131 65.4347C112.943 65.9671 111.721 66.2356 110.472 66.2356H109.303C108.032 66.2356 106.824 65.9523 105.689 65.3893C104.551 64.8245 103.64 64.0412 102.951 63.0376C102.264 62.0311 101.92 60.8848 101.92 59.5941C101.92 57.6052 102.793 55.9867 104.535 54.7349L105.826 53.8099C106.276 53.4822 106.61 53.2025 106.824 52.9683C107.039 52.7303 107.157 52.4803 107.18 52.2118V51.5368H112.438V53.3507H112.439ZM112.685 44.8018V50.4285H106.811V44.8018H112.685Z" fill="#EC693C"/>
<path d="M132.217 37.9747C133.558 38.6414 134.619 39.6441 135.4 40.9885C136.179 42.332 136.569 43.9764 136.569 45.9255H130.51V44.8496C130.51 43.9042 130.218 43.1589 129.634 42.6024C129.049 42.0487 128.317 41.7709 127.435 41.7709H127.283C126.422 41.7709 125.694 42.0728 125.097 42.6653C124.504 43.2598 124.207 43.9875 124.207 44.8496V50.7828C124.207 51.6448 124.504 52.3726 125.097 52.9679C125.694 53.5605 126.422 53.8587 127.283 53.8587H127.711C128.594 53.8587 129.327 53.5855 129.909 53.042C130.496 52.4985 130.788 51.7467 130.788 50.7828V49.7689H136.569C136.569 51.5707 136.194 53.1503 135.446 54.504C134.697 55.8549 133.668 56.891 132.356 57.6095C131.044 58.3271 129.558 58.6854 127.897 58.6854H127.037C125.21 58.6854 123.556 58.3169 122.07 57.5781C120.584 56.841 119.41 55.7753 118.549 54.379C117.687 52.9874 117.258 51.3467 117.258 49.4606V46.2005C117.258 44.4163 117.693 42.8237 118.563 41.4191C119.435 40.0154 120.598 38.9247 122.054 38.1432C123.508 37.3673 125.087 36.9766 126.789 36.9766H127.65C129.351 36.9766 130.873 37.3099 132.217 37.9747Z" fill="#EC693C"/>
<path d="M154.157 50.9821C154.157 51.37 154.251 51.657 154.432 51.8431C154.618 52.0265 154.844 52.1191 155.111 52.1191C155.498 52.1191 155.859 52.0265 156.187 51.8431V55.1311C155.532 55.6033 154.496 55.8412 153.082 55.8412C151.769 55.8412 150.765 55.6301 150.07 55.2088C149.371 54.7903 148.869 54.1718 148.56 53.3515C148.213 53.8811 147.64 54.4311 146.839 54.994C146.042 55.557 145.158 55.8403 144.197 55.8403H143.333C142.492 55.8403 141.719 55.6338 141.012 55.2236C140.305 54.8172 139.747 54.2561 139.336 53.5496C138.926 52.8413 138.721 52.0682 138.721 51.2274V39.8184H144.809V49.6589C144.809 50.1719 144.969 50.6071 145.287 50.9645C145.605 51.3228 145.987 51.5024 146.441 51.5024C146.892 51.5024 147.275 51.3228 147.592 50.9645C147.91 50.6071 148.071 50.1719 148.071 49.6589V39.8184H154.158V50.9821H154.157Z" fill="#EC693C"/>
<path d="M171.67 44.111C172.931 45.0341 173.563 46.2331 173.563 47.7072V54.1987C173.563 54.5867 173.655 54.8737 173.838 55.0598C174.023 55.2423 174.248 55.3348 174.515 55.3348C174.903 55.3348 175.264 55.2423 175.591 55.0598V58.3477C174.933 58.819 173.9 59.0561 172.486 59.0561C171.172 59.0561 170.136 58.8357 169.379 58.394C168.619 57.9514 168.15 57.344 167.966 56.5654C167.308 57.3218 166.585 57.9274 165.797 58.3774C165.008 58.8274 164.038 59.0551 162.892 59.0551C161.25 59.0551 159.918 58.7376 158.893 58.1033C157.87 57.4663 157.356 56.2154 157.356 54.3515C157.356 52.9376 157.756 51.846 158.555 51.0757C159.355 50.3071 160.497 49.7747 161.984 49.4766C163.469 49.1784 165.362 49.0312 167.656 49.0312V48.1377C167.656 47.5664 167.468 47.1146 167.089 46.785C166.708 46.4581 166.232 46.2961 165.66 46.2961C165.187 46.2961 164.741 46.4313 164.32 46.7072C163.9 46.9859 163.69 47.3294 163.69 47.7396V47.8618H157.848C157.827 47.8035 157.816 47.6563 157.816 47.4313C157.816 46.5507 158.119 45.7544 158.725 45.0489C159.327 44.3415 160.188 43.7786 161.307 43.3582C162.424 42.9378 163.722 42.7277 165.196 42.7277H166.212C168.591 42.7277 170.409 43.1869 171.67 44.111ZM164.673 52.3664C164.038 52.7265 163.723 53.2228 163.723 53.858C163.723 54.8423 164.337 55.3339 165.567 55.3339C166.141 55.3339 166.633 55.1339 167.043 54.7348C167.451 54.3339 167.656 53.8182 167.656 53.1821V51.8284C166.304 51.8284 165.31 52.008 164.673 52.3664ZM171.656 36.7009L167.781 41.0656H164.153L166.951 36.6064H171.592L171.656 36.7009Z" fill="#EC693C"/>
<path d="M190.488 40.4341C191.194 40.8443 191.752 41.4026 192.163 42.1109C192.572 42.8174 192.779 43.5924 192.779 44.4313V55.8403H186.69V45.9998C186.69 45.4868 186.53 45.0516 186.212 44.6933C185.894 44.3331 185.511 44.1535 185.061 44.1535C184.608 44.1535 184.225 44.3331 183.907 44.6933C183.589 45.0516 183.429 45.4868 183.429 45.9998V55.8403H177.341V40.1267H181.922L182.538 42.4017C183.667 40.6795 185.254 39.8184 187.305 39.8184H188.166C189.007 39.8184 189.781 40.0239 190.488 40.4341Z" fill="#EC693C"/>
<path d="M202.744 42.3108H206.433V46.6774H202.744V52.4874C202.744 53.3087 202.902 53.8661 203.22 54.1652C203.538 54.4606 203.964 54.6106 204.497 54.6106C204.743 54.6106 205.067 54.5754 205.465 54.5032C205.866 54.43 206.179 54.3448 206.403 54.2402V57.6864C205.934 57.891 205.275 58.054 204.437 58.1781C203.597 58.2994 202.877 58.3614 202.283 58.3614C200.478 58.3614 199.089 58.0337 198.115 57.3781C197.141 56.7235 196.656 55.6059 196.656 54.0254V46.6774H194.936V42.3108H196.902L199.025 37.2988H202.746V42.3108H202.744Z" fill="#EC693C"/>
<path d="M221.206 40.6678C222.448 41.3326 223.421 42.2594 224.126 43.4502C224.835 44.6363 225.187 45.9908 225.187 47.5093V48.1547C225.187 49.6908 224.834 51.0528 224.126 52.2435C223.42 53.4324 222.448 54.3555 221.206 55.0111C219.965 55.6666 218.576 55.9944 217.04 55.9944H216.056C214.517 55.9944 213.128 55.6629 211.889 54.9953C210.647 54.3305 209.674 53.3991 208.967 52.213C208.259 51.0222 207.906 49.6713 207.906 48.1538V47.5084C207.906 45.9899 208.259 44.6353 208.967 43.4492C209.675 42.2585 210.647 41.3317 211.889 40.6669C213.128 39.9974 214.517 39.665 216.056 39.665H217.04C218.576 39.666 219.965 39.9984 221.206 40.6678ZM215.041 44.015C214.629 44.4362 214.428 44.9464 214.428 45.539V50.1204C214.428 50.7167 214.629 51.2213 215.041 51.6435C215.449 52.063 215.954 52.2741 216.547 52.2741C217.144 52.2741 217.646 52.063 218.056 51.6435C218.464 51.2223 218.668 50.7167 218.668 50.1204V45.539C218.668 44.9455 218.464 44.4362 218.056 44.015C217.646 43.5983 217.144 43.3872 216.547 43.3872C215.954 43.3881 215.449 43.5983 215.041 44.015Z" fill="#EC693C"/>
<path d="M158.155 66.9891C159.148 67.565 159.935 68.3511 160.508 69.3418C161.082 70.3372 161.369 71.4196 161.369 72.5871V73.2631C161.369 74.4316 161.081 75.513 160.508 76.5083C159.935 77.5028 159.148 78.2852 158.155 78.8602C157.159 79.4342 156.078 79.7222 154.913 79.7222H150.145V87.2239H143.686V66.1289H154.913C156.078 66.128 157.159 66.415 158.155 66.9891ZM150.144 75.0167H152.973C153.548 75.0167 153.998 74.826 154.326 74.4464C154.654 74.0686 154.818 73.6427 154.818 73.1695V72.8019C154.818 72.3288 154.659 71.9038 154.34 71.526C154.023 71.1492 153.568 70.9575 152.972 70.9575H150.143V75.0167H150.144Z" fill="#EC693C"/>
<path d="M175.834 69.4173C176.97 70.022 177.844 70.8599 178.447 71.9256C179.053 72.9904 179.355 74.2117 179.355 75.583V77.4903H169.114V78.9672C169.114 79.6634 169.335 80.1986 169.775 80.5662C170.216 80.9338 170.783 81.1199 171.483 81.1199C172.2 81.1199 172.748 80.9005 173.127 80.4588C173.507 80.0181 173.697 79.4079 173.697 78.6274H179.321C179.321 79.7986 179.019 80.8542 178.416 81.7949C177.81 82.7402 176.93 83.4819 175.77 84.0245C174.612 84.568 173.244 84.8402 171.666 84.8402H171.203C169.563 84.8402 168.094 84.5374 166.792 83.9337C165.49 83.33 164.463 82.4458 163.716 81.2903C162.967 80.132 162.596 78.7533 162.596 77.1533V76.2005C162.596 74.6006 162.948 73.2219 163.657 72.0645C164.362 70.9053 165.351 70.0238 166.625 69.4192C167.893 68.8164 169.35 68.5127 170.989 68.5127H171.76C173.337 68.5109 174.697 68.8136 175.834 69.4173ZM169.732 72.8599C169.321 73.2811 169.115 73.7904 169.115 74.3839V74.8154H173.358V74.3839C173.358 73.7904 173.155 73.2821 172.744 72.8599C172.334 72.4432 171.832 72.2312 171.238 72.2312C170.642 72.2321 170.139 72.4432 169.732 72.8599Z" fill="#EC693C"/>
<path d="M194.315 69.7854C195.065 70.5372 195.437 71.564 195.437 72.8779V73.3982L195.377 74.5677L195.315 75.3353H190.331V74.5991C190.331 74.1695 190.204 73.8038 189.95 73.5084C189.692 73.2075 189.391 73.0612 189.041 73.0612C188.673 73.0612 188.361 73.2075 188.105 73.5084C187.848 73.8029 187.719 74.1695 187.719 74.5991V84.6851H181.784V68.9715H186.336L187.012 71.2464C187.136 71.0001 187.372 70.6733 187.719 70.2631C188.067 69.853 188.541 69.4854 189.133 69.1548C189.729 68.8289 190.405 68.6641 191.163 68.6641C192.516 68.6631 193.568 69.0391 194.315 69.7854Z" fill="#EC693C"/>
<path d="M210.858 69.895C212.12 70.8181 212.75 72.0172 212.75 73.4922V79.9837C212.75 80.3708 212.844 80.6587 213.027 80.8439C213.212 81.0272 213.437 81.1198 213.704 81.1198C214.093 81.1198 214.453 81.0272 214.781 80.8439V84.1327C214.121 84.604 213.088 84.841 211.675 84.841C210.361 84.841 209.326 84.6207 208.57 84.1781C207.809 83.7374 207.338 83.129 207.153 82.3504C206.499 83.1068 205.774 83.7124 204.986 84.1633C204.198 84.6133 203.228 84.8401 202.08 84.8401C200.439 84.8401 199.109 84.5225 198.082 83.8864C197.059 83.2503 196.546 81.9994 196.546 80.1365C196.546 78.7217 196.947 77.631 197.745 76.8606C198.545 76.0921 199.685 75.5588 201.172 75.2607C202.659 74.9625 204.55 74.8162 206.845 74.8162V73.9218C206.845 73.3524 206.658 72.8996 206.278 72.5709C205.896 72.2431 205.421 72.0802 204.849 72.0802C204.376 72.0802 203.931 72.2153 203.51 72.4931C203.09 72.7709 202.879 73.1144 202.879 73.5246V73.6468H197.038C197.016 73.5866 197.007 73.4413 197.007 73.2163C197.007 72.3357 197.309 71.5394 197.914 70.8339C198.516 70.1246 199.378 69.5626 200.496 69.1423C201.612 68.7228 202.911 68.5117 204.385 68.5117H205.402C207.78 68.5117 209.599 68.9719 210.858 69.895ZM203.864 78.1513C203.228 78.5115 202.913 79.0069 202.913 79.6421C202.913 80.6272 203.525 81.1189 204.758 81.1189C205.33 81.1189 205.823 80.918 206.233 80.5198C206.64 80.1189 206.846 79.6041 206.846 78.9671V77.6125C205.495 77.6125 204.499 77.7921 203.864 78.1513Z" fill="#EC693C"/>
<path d="M228.235 66.819C229.374 67.3829 230.284 68.1662 230.972 69.1726C231.658 70.1754 232.001 71.3245 232.001 72.6152C232.001 73.7226 231.76 74.6661 231.277 75.4448C230.796 76.2244 230.156 76.9003 229.356 77.4753L228.097 78.3966C227.603 78.766 227.257 79.0567 227.052 79.2715C226.846 79.4864 226.743 79.7271 226.743 79.9947V80.6697H221.485V78.8567C221.485 78.3253 221.638 77.8392 221.946 77.4105C222.253 76.979 222.735 76.4383 223.392 75.7827C224.067 75.1272 224.586 74.5522 224.943 74.0614C225.301 73.5661 225.482 73.0059 225.482 72.3698C225.482 71.7735 225.291 71.2671 224.914 70.8458C224.533 70.4282 224.046 70.2171 223.453 70.2171C222.693 70.2171 222.171 70.4522 221.885 70.9235C221.597 71.3939 221.452 72.0198 221.452 72.7994V73.2309C221.452 73.3929 221.466 73.5253 221.485 73.6318H215.828C215.807 73.4865 215.784 73.3207 215.766 73.1365C215.745 72.9531 215.734 72.7281 215.734 72.4605C215.734 71.1689 216.113 70.0328 216.873 69.0467C217.631 68.0634 218.606 67.3051 219.793 66.7727C220.982 66.2403 222.201 65.9736 223.453 65.9736H224.62C225.892 65.9736 227.095 66.2542 228.235 66.819ZM227.203 81.7502V87.3742H221.33V81.7502H227.203Z" fill="#EC693C"/>
<path d="M129.285 84.5445H136.443V82.2445H135.87L130.654 76.1456L135.563 70.617H136.353V68.3105H129.893V70.617H131.377L129.181 73.8938H128.194L126 70.617H127.482V68.3105H120.389V70.617H120.959L126.111 76.6437L121.129 82.2445H120.346V84.5445H126.869V82.2445H125.273L127.594 78.9622H128.558L130.87 82.2445H129.285V84.5445Z" fill="#EC693C"/>
<path d="M78.456 70.3978C78.4976 70.4992 78.5414 70.5999 78.5844 70.7007C83.5881 82.5079 83.0171 96.0542 77.1308 105.209C72.5193 112.377 64.3423 116.847 54.1044 117.796C51.5641 118.031 48.9968 118.101 46.4924 118.005C45.3755 117.962 44.4109 117.533 43.9121 116.857C43.5269 116.335 43.4286 115.681 43.6271 114.966C43.7789 114.417 44.1436 113.979 44.4966 113.556C44.7131 113.298 44.9187 113.052 45.0658 112.793C45.4729 112.082 45.7351 111.47 45.8953 110.869C46.2814 109.41 46.3462 107.99 46.0835 106.764C45.3979 103.565 43.41 101.381 40.7659 100.923C40.343 100.85 39.9103 100.813 39.4804 100.813C36.7058 100.813 34.1283 102.352 32.9136 104.734C31.4776 107.548 31.7524 110.938 33.6141 113.369C34.2662 114.22 34.9881 115.331 34.7822 116.363C34.669 116.928 34.2918 117.4 33.6621 117.765C33.1572 118.058 32.4688 118.201 31.5582 118.201C30.5545 118.201 29.4371 118.024 28.5396 117.882L28.4982 117.875C28.1453 117.819 27.8198 117.768 27.5391 117.733C20.3017 116.849 10.5449 113.929 5.16297 105.043C0.773622 97.7958 -0.568241 88.0589 1.48158 78.3299C2.50207 73.4843 4.31528 68.9855 6.87046 64.9576C8.01636 63.1501 9.28341 61.385 10.5104 59.6758L10.5534 59.6159C11.9553 57.6644 13.4046 55.6471 14.6757 53.5674C15.8108 51.7109 17.0725 49.4905 17.8247 47.0966C18.4177 45.2078 18.6179 43.3323 18.8299 41.3475L18.8337 41.3117C18.8911 40.7732 18.9487 40.2329 19.0152 39.69C19.7055 34.0517 21.1675 29.6054 23.4851 26.097C27.2979 20.3252 33.4045 16.8818 39.8204 16.8818C42.3355 16.8818 44.8138 17.4133 47.1892 18.4539C51.1994 20.2126 54.0825 23.1453 55.3075 26.6972C56.6214 30.5081 56.6535 34.6597 55.3983 38.3589C53.5064 43.9303 49.7793 48.4951 46.1753 52.8762C44.7593 54.5974 43.295 56.4442 41.9662 58.2587C39.0174 62.2866 37.0095 66.7333 35.9983 71.2095C35.3814 73.9394 35.2664 78.1781 35.2782 81.2464C35.2864 83.3789 37.039 85.0537 39.1715 85.0537C41.3715 85.0537 43.1654 83.2745 43.3008 81.0786C43.5471 77.0827 44.201 71.0137 45.9358 67.4139C48.1547 62.8079 51.4514 58.6064 54.6391 54.8024C55.6493 53.5965 56.6936 52.3499 57.6884 51.101C58.0997 50.5852 58.4788 50.0109 58.8794 49.4033L58.881 49.4008C59.4786 48.4957 60.0967 47.5595 60.8314 46.8311C61.2781 46.3884 61.8878 46.1441 62.5491 46.1441C62.9669 46.1441 63.3852 46.2438 63.7569 46.4331C64.3596 46.7383 64.7257 47.4761 65.217 48.5653C65.9101 50.1074 66.6823 51.5811 67.5105 52.9464C68.8067 55.0859 70.2654 57.1793 71.6776 59.2038L71.6928 59.2257C74.1385 62.7361 76.6668 66.3653 78.4452 70.3715C78.4488 70.3803 78.4524 70.389 78.456 70.3978Z" fill="#EC693C"/>
<path d="M38.8966 10.4997C39.9465 10.3258 40.6404 9.90522 42.0319 10.3314C41.1135 8.00713 38.9709 3.37066 37.4767 1.2216C37.3475 1.03895 37.1909 0.884186 37.0259 0.753124C37.0143 0.746617 37.0068 0.736392 36.9999 0.730815C36.3794 0.260475 35.5796 0.154974 35.0409 0.537939C35.0311 0.541192 35.0232 0.548628 35.0144 0.55374C34.3177 1.04314 34.2838 2.07956 34.8476 2.86686C36.0959 4.63668 38.0897 8.61365 38.8966 10.4997Z" fill="#EC693C"/>
</svg>
