<svg width="240" height="127" viewBox="0 0 240 127" fill="none" xmlns="http://www.w3.org/2000/svg">
<g filter="url(#filter0_d)">
<path d="M116.439 53.3507C116.439 53.8831 116.286 54.3627 115.978 54.7932C115.67 55.2238 115.187 55.7701 114.532 56.4256C113.857 57.0812 113.338 57.6543 112.981 58.1469C112.621 58.6367 112.442 59.2034 112.442 59.8395C112.442 60.4339 112.631 60.9394 113.011 61.3607C113.388 61.7802 113.876 61.9913 114.472 61.9913C115.208 61.9913 115.735 61.7607 116.053 61.3005C116.371 60.8376 116.532 60.2496 116.532 59.5311C116.532 59.2033 116.502 58.883 116.439 58.5784H122.097C122.117 58.7237 122.137 58.883 122.159 59.0682C122.18 59.2543 122.189 59.4783 122.189 59.7469C122.189 61.0376 121.809 62.1765 121.051 63.1607C120.294 64.144 119.32 64.9014 118.131 65.4347C116.943 65.9671 115.721 66.2356 114.472 66.2356H113.303C112.032 66.2356 110.824 65.9523 109.689 65.3893C108.551 64.8245 107.64 64.0412 106.951 63.0376C106.264 62.0311 105.92 60.8848 105.92 59.5941C105.92 57.6052 106.793 55.9867 108.535 54.7349L109.826 53.8099C110.276 53.4822 110.61 53.2025 110.824 52.9683C111.039 52.7303 111.157 52.4803 111.18 52.2118V51.5368H116.438V53.3507H116.439ZM116.685 44.8018V50.4285H110.811V44.8018H116.685Z" fill="#EC693C"/>
<path d="M136.217 37.9747C137.558 38.6414 138.619 39.6441 139.4 40.9885C140.179 42.332 140.569 43.9764 140.569 45.9255H134.51V44.8496C134.51 43.9042 134.218 43.1589 133.634 42.6024C133.049 42.0487 132.317 41.7709 131.435 41.7709H131.283C130.422 41.7709 129.694 42.0728 129.097 42.6653C128.504 43.2598 128.207 43.9875 128.207 44.8496V50.7828C128.207 51.6448 128.504 52.3726 129.097 52.9679C129.694 53.5605 130.422 53.8587 131.283 53.8587H131.711C132.594 53.8587 133.327 53.5855 133.909 53.042C134.496 52.4985 134.788 51.7467 134.788 50.7828V49.7689H140.569C140.569 51.5707 140.194 53.1503 139.446 54.504C138.697 55.8549 137.668 56.891 136.356 57.6095C135.044 58.3271 133.558 58.6854 131.897 58.6854H131.037C129.21 58.6854 127.556 58.3169 126.07 57.5781C124.584 56.841 123.41 55.7753 122.549 54.379C121.687 52.9874 121.258 51.3467 121.258 49.4606V46.2005C121.258 44.4163 121.693 42.8237 122.563 41.4191C123.435 40.0154 124.598 38.9247 126.054 38.1432C127.508 37.3673 129.087 36.9766 130.789 36.9766H131.65C133.351 36.9766 134.873 37.3099 136.217 37.9747Z" fill="#EC693C"/>
<path d="M158.157 50.9821C158.157 51.37 158.251 51.657 158.432 51.8431C158.618 52.0265 158.844 52.1191 159.111 52.1191C159.498 52.1191 159.859 52.0265 160.187 51.8431V55.1311C159.532 55.6033 158.496 55.8412 157.082 55.8412C155.769 55.8412 154.765 55.6301 154.07 55.2088C153.371 54.7903 152.869 54.1718 152.56 53.3515C152.213 53.8811 151.64 54.4311 150.839 54.994C150.042 55.557 149.158 55.8403 148.197 55.8403H147.333C146.492 55.8403 145.719 55.6338 145.012 55.2236C144.305 54.8172 143.747 54.2561 143.336 53.5496C142.926 52.8413 142.721 52.0682 142.721 51.2274V39.8184H148.809V49.6589C148.809 50.1719 148.969 50.6071 149.287 50.9645C149.605 51.3228 149.987 51.5024 150.441 51.5024C150.892 51.5024 151.275 51.3228 151.592 50.9645C151.91 50.6071 152.071 50.1719 152.071 49.6589V39.8184H158.158V50.9821H158.157Z" fill="#EC693C"/>
<path d="M175.67 44.111C176.931 45.0341 177.563 46.2331 177.563 47.7072V54.1987C177.563 54.5867 177.655 54.8737 177.838 55.0598C178.023 55.2423 178.248 55.3348 178.515 55.3348C178.903 55.3348 179.264 55.2423 179.591 55.0598V58.3477C178.933 58.819 177.9 59.0561 176.486 59.0561C175.172 59.0561 174.136 58.8357 173.379 58.394C172.619 57.9514 172.15 57.344 171.966 56.5654C171.308 57.3218 170.585 57.9274 169.797 58.3774C169.008 58.8274 168.038 59.0551 166.892 59.0551C165.25 59.0551 163.918 58.7376 162.893 58.1033C161.87 57.4663 161.356 56.2154 161.356 54.3515C161.356 52.9376 161.756 51.846 162.555 51.0757C163.355 50.3071 164.497 49.7747 165.984 49.4766C167.469 49.1784 169.362 49.0312 171.656 49.0312V48.1377C171.656 47.5664 171.468 47.1146 171.089 46.785C170.708 46.4581 170.232 46.2961 169.66 46.2961C169.187 46.2961 168.741 46.4313 168.32 46.7072C167.9 46.9859 167.69 47.3294 167.69 47.7396V47.8618H161.848C161.827 47.8035 161.816 47.6563 161.816 47.4313C161.816 46.5507 162.119 45.7544 162.725 45.0489C163.327 44.3415 164.188 43.7786 165.307 43.3582C166.424 42.9378 167.722 42.7277 169.196 42.7277H170.212C172.591 42.7277 174.409 43.1869 175.67 44.111ZM168.673 52.3664C168.038 52.7265 167.723 53.2228 167.723 53.858C167.723 54.8423 168.337 55.3339 169.567 55.3339C170.141 55.3339 170.633 55.1339 171.043 54.7348C171.451 54.3339 171.656 53.8182 171.656 53.1821V51.8284C170.304 51.8284 169.31 52.008 168.673 52.3664ZM175.656 36.7009L171.781 41.0656H168.153L170.951 36.6064H175.592L175.656 36.7009Z" fill="#EC693C"/>
<path d="M194.488 40.4341C195.194 40.8443 195.752 41.4026 196.163 42.1109C196.572 42.8174 196.779 43.5924 196.779 44.4313V55.8403H190.69V45.9998C190.69 45.4868 190.53 45.0516 190.212 44.6933C189.894 44.3331 189.511 44.1535 189.061 44.1535C188.608 44.1535 188.225 44.3331 187.907 44.6933C187.589 45.0516 187.429 45.4868 187.429 45.9998V55.8403H181.341V40.1267H185.922L186.538 42.4017C187.667 40.6795 189.254 39.8184 191.305 39.8184H192.166C193.007 39.8184 193.781 40.0239 194.488 40.4341Z" fill="#EC693C"/>
<path d="M206.744 42.3108H210.433V46.6774H206.744V52.4874C206.744 53.3087 206.902 53.8661 207.22 54.1652C207.538 54.4606 207.964 54.6106 208.497 54.6106C208.743 54.6106 209.067 54.5754 209.465 54.5032C209.866 54.43 210.179 54.3448 210.403 54.2402V57.6864C209.934 57.891 209.275 58.054 208.437 58.1781C207.597 58.2994 206.877 58.3614 206.283 58.3614C204.478 58.3614 203.089 58.0337 202.115 57.3781C201.141 56.7235 200.656 55.6059 200.656 54.0254V46.6774H198.936V42.3108H200.902L203.025 37.2988H206.746V42.3108H206.744Z" fill="#EC693C"/>
<path d="M225.206 40.6678C226.448 41.3326 227.421 42.2594 228.126 43.4502C228.835 44.6363 229.187 45.9908 229.187 47.5093V48.1547C229.187 49.6908 228.834 51.0528 228.126 52.2435C227.42 53.4324 226.448 54.3555 225.206 55.0111C223.965 55.6666 222.576 55.9944 221.04 55.9944H220.056C218.517 55.9944 217.128 55.6629 215.889 54.9953C214.647 54.3305 213.674 53.3991 212.967 52.213C212.259 51.0222 211.906 49.6713 211.906 48.1538V47.5084C211.906 45.9899 212.259 44.6353 212.967 43.4492C213.675 42.2585 214.647 41.3317 215.889 40.6669C217.128 39.9974 218.517 39.665 220.056 39.665H221.04C222.576 39.666 223.965 39.9984 225.206 40.6678ZM219.041 44.015C218.629 44.4362 218.428 44.9464 218.428 45.539V50.1204C218.428 50.7167 218.629 51.2213 219.041 51.6435C219.449 52.063 219.954 52.2741 220.547 52.2741C221.144 52.2741 221.646 52.063 222.056 51.6435C222.464 51.2223 222.668 50.7167 222.668 50.1204V45.539C222.668 44.9455 222.464 44.4362 222.056 44.015C221.646 43.5983 221.144 43.3872 220.547 43.3872C219.954 43.3881 219.449 43.5983 219.041 44.015Z" fill="#EC693C"/>
<path d="M162.155 66.9891C163.148 67.565 163.935 68.3511 164.508 69.3418C165.082 70.3372 165.369 71.4196 165.369 72.5871V73.2631C165.369 74.4316 165.081 75.513 164.508 76.5083C163.935 77.5028 163.148 78.2852 162.155 78.8602C161.159 79.4342 160.078 79.7222 158.913 79.7222H154.145V87.2239H147.686V66.1289H158.913C160.078 66.128 161.159 66.415 162.155 66.9891ZM154.144 75.0167H156.973C157.548 75.0167 157.998 74.826 158.326 74.4464C158.654 74.0686 158.818 73.6427 158.818 73.1695V72.8019C158.818 72.3288 158.659 71.9038 158.34 71.526C158.023 71.1492 157.568 70.9575 156.972 70.9575H154.143V75.0167H154.144Z" fill="#EC693C"/>
<path d="M179.834 69.4173C180.97 70.022 181.844 70.8599 182.447 71.9256C183.053 72.9904 183.355 74.2117 183.355 75.583V77.4903H173.114V78.9672C173.114 79.6634 173.335 80.1986 173.775 80.5662C174.216 80.9338 174.783 81.1199 175.483 81.1199C176.2 81.1199 176.748 80.9005 177.127 80.4588C177.507 80.0181 177.697 79.4079 177.697 78.6274H183.321C183.321 79.7986 183.019 80.8542 182.416 81.7949C181.81 82.7402 180.93 83.4819 179.77 84.0245C178.612 84.568 177.244 84.8402 175.666 84.8402H175.203C173.563 84.8402 172.094 84.5374 170.792 83.9337C169.49 83.33 168.463 82.4458 167.716 81.2903C166.967 80.132 166.596 78.7533 166.596 77.1533V76.2005C166.596 74.6006 166.948 73.2219 167.657 72.0645C168.362 70.9053 169.351 70.0238 170.625 69.4192C171.893 68.8164 173.35 68.5127 174.989 68.5127H175.76C177.337 68.5109 178.697 68.8136 179.834 69.4173ZM173.732 72.8599C173.321 73.2811 173.115 73.7904 173.115 74.3839V74.8154H177.358V74.3839C177.358 73.7904 177.155 73.2821 176.744 72.8599C176.334 72.4432 175.832 72.2312 175.238 72.2312C174.642 72.2321 174.139 72.4432 173.732 72.8599Z" fill="#EC693C"/>
<path d="M198.315 69.7854C199.065 70.5372 199.437 71.564 199.437 72.8779V73.3982L199.377 74.5677L199.315 75.3353H194.331V74.5991C194.331 74.1695 194.204 73.8038 193.95 73.5084C193.692 73.2075 193.391 73.0612 193.041 73.0612C192.673 73.0612 192.361 73.2075 192.105 73.5084C191.848 73.8029 191.719 74.1695 191.719 74.5991V84.6851H185.784V68.9715H190.336L191.012 71.2464C191.136 71.0001 191.372 70.6733 191.719 70.2631C192.067 69.853 192.541 69.4854 193.133 69.1548C193.729 68.8289 194.405 68.6641 195.163 68.6641C196.516 68.6631 197.568 69.0391 198.315 69.7854Z" fill="#EC693C"/>
<path d="M214.858 69.895C216.12 70.8181 216.75 72.0172 216.75 73.4922V79.9837C216.75 80.3708 216.844 80.6587 217.027 80.8439C217.212 81.0272 217.437 81.1198 217.704 81.1198C218.093 81.1198 218.453 81.0272 218.781 80.8439V84.1327C218.121 84.604 217.088 84.841 215.675 84.841C214.361 84.841 213.326 84.6207 212.57 84.1781C211.809 83.7374 211.338 83.129 211.153 82.3504C210.499 83.1068 209.774 83.7124 208.986 84.1633C208.198 84.6133 207.228 84.8401 206.08 84.8401C204.439 84.8401 203.109 84.5225 202.082 83.8864C201.059 83.2503 200.546 81.9994 200.546 80.1365C200.546 78.7217 200.947 77.631 201.745 76.8606C202.545 76.0921 203.685 75.5588 205.172 75.2607C206.659 74.9625 208.55 74.8162 210.845 74.8162V73.9218C210.845 73.3524 210.658 72.8996 210.278 72.5709C209.896 72.2431 209.421 72.0802 208.849 72.0802C208.376 72.0802 207.931 72.2153 207.51 72.4931C207.09 72.7709 206.879 73.1144 206.879 73.5246V73.6468H201.038C201.016 73.5866 201.007 73.4413 201.007 73.2163C201.007 72.3357 201.309 71.5394 201.914 70.8339C202.516 70.1246 203.378 69.5626 204.496 69.1423C205.612 68.7228 206.911 68.5117 208.385 68.5117H209.402C211.78 68.5117 213.599 68.9719 214.858 69.895ZM207.864 78.1513C207.228 78.5115 206.913 79.0069 206.913 79.6421C206.913 80.6272 207.525 81.1189 208.758 81.1189C209.33 81.1189 209.823 80.918 210.233 80.5198C210.64 80.1189 210.846 79.6041 210.846 78.9671V77.6125C209.495 77.6125 208.499 77.7921 207.864 78.1513Z" fill="#EC693C"/>
<path d="M232.235 66.819C233.374 67.3829 234.284 68.1662 234.972 69.1726C235.658 70.1754 236.001 71.3245 236.001 72.6152C236.001 73.7226 235.76 74.6661 235.277 75.4448C234.796 76.2244 234.156 76.9003 233.356 77.4753L232.097 78.3966C231.603 78.766 231.257 79.0567 231.052 79.2715C230.846 79.4864 230.743 79.7271 230.743 79.9947V80.6697H225.485V78.8567C225.485 78.3253 225.638 77.8392 225.946 77.4105C226.253 76.979 226.735 76.4383 227.392 75.7827C228.067 75.1272 228.586 74.5522 228.943 74.0614C229.301 73.5661 229.482 73.0059 229.482 72.3698C229.482 71.7735 229.291 71.2671 228.914 70.8458C228.533 70.4282 228.046 70.2171 227.453 70.2171C226.693 70.2171 226.171 70.4522 225.885 70.9235C225.597 71.3939 225.452 72.0198 225.452 72.7994V73.2309C225.452 73.3929 225.466 73.5253 225.485 73.6318H219.828C219.807 73.4865 219.784 73.3207 219.766 73.1365C219.745 72.9531 219.734 72.7281 219.734 72.4605C219.734 71.1689 220.113 70.0328 220.873 69.0467C221.631 68.0634 222.606 67.3051 223.793 66.7727C224.982 66.2403 226.201 65.9736 227.453 65.9736H228.62C229.892 65.9736 231.095 66.2542 232.235 66.819ZM231.203 81.7502V87.3742H225.33V81.7502H231.203Z" fill="#EC693C"/>
<path d="M133.285 84.5445H140.443V82.2445H139.87L134.654 76.1456L139.563 70.617H140.353V68.3105H133.893V70.617H135.377L133.181 73.8938H132.194L130 70.617H131.482V68.3105H124.389V70.617H124.959L130.111 76.6437L125.129 82.2445H124.346V84.5445H130.869V82.2445H129.273L131.594 78.9622H132.558L134.87 82.2445H133.285V84.5445Z" fill="#EC693C"/>
</g>
<g filter="url(#filter1_d)">
<path d="M82.456 70.3978C82.4976 70.4992 82.5414 70.5999 82.5844 70.7007C87.5881 82.5079 87.0171 96.0542 81.1308 105.209C76.5193 112.377 68.3423 116.847 58.1044 117.796C55.5641 118.031 52.9968 118.101 50.4924 118.005C49.3755 117.962 48.4109 117.533 47.9121 116.857C47.5269 116.335 47.4286 115.681 47.6271 114.966C47.7789 114.417 48.1436 113.979 48.4966 113.556C48.7131 113.298 48.9187 113.052 49.0658 112.793C49.4729 112.082 49.7351 111.47 49.8953 110.869C50.2814 109.41 50.3462 107.99 50.0835 106.764C49.3979 103.565 47.41 101.381 44.7659 100.923C44.343 100.85 43.9103 100.813 43.4804 100.813C40.7058 100.813 38.1283 102.352 36.9136 104.734C35.4776 107.548 35.7524 110.938 37.6141 113.369C38.2662 114.22 38.9881 115.331 38.7822 116.363C38.669 116.928 38.2918 117.4 37.6621 117.765C37.1572 118.058 36.4688 118.201 35.5582 118.201C34.5545 118.201 33.4371 118.024 32.5396 117.882L32.4982 117.875C32.1453 117.819 31.8198 117.768 31.5391 117.733C24.3017 116.849 14.5449 113.929 9.16297 105.043C4.77362 97.7958 3.43176 88.0589 5.48158 78.3299C6.50207 73.4843 8.31528 68.9855 10.8705 64.9576C12.0164 63.1501 13.2834 61.385 14.5104 59.6758L14.5534 59.6159C15.9553 57.6644 17.4046 55.6471 18.6757 53.5674C19.8108 51.7109 21.0725 49.4905 21.8247 47.0966C22.4177 45.2078 22.6179 43.3323 22.8299 41.3475L22.8337 41.3117C22.8911 40.7732 22.9487 40.2329 23.0152 39.69C23.7055 34.0517 25.1675 29.6054 27.4851 26.097C31.2979 20.3252 37.4045 16.8818 43.8204 16.8818C46.3355 16.8818 48.8138 17.4133 51.1892 18.4539C55.1994 20.2126 58.0825 23.1453 59.3075 26.6972C60.6214 30.5081 60.6535 34.6597 59.3983 38.3589C57.5064 43.9303 53.7793 48.4951 50.1753 52.8762C48.7593 54.5974 47.295 56.4442 45.9662 58.2587C43.0174 62.2866 41.0095 66.7333 39.9983 71.2095C39.3814 73.9394 39.2664 78.1781 39.2782 81.2464C39.2864 83.3789 41.039 85.0537 43.1715 85.0537C45.3715 85.0537 47.1654 83.2745 47.3008 81.0786C47.5471 77.0827 48.201 71.0137 49.9358 67.4139C52.1547 62.8079 55.4514 58.6064 58.6391 54.8024C59.6493 53.5965 60.6936 52.3499 61.6884 51.101C62.0997 50.5852 62.4788 50.0109 62.8794 49.4033L62.881 49.4008C63.4786 48.4957 64.0967 47.5595 64.8314 46.8311C65.2781 46.3884 65.8878 46.1441 66.5491 46.1441C66.9669 46.1441 67.3852 46.2438 67.7569 46.4331C68.3596 46.7383 68.7257 47.4761 69.217 48.5653C69.9101 50.1074 70.6823 51.5811 71.5105 52.9464C72.8067 55.0859 74.2654 57.1793 75.6776 59.2038L75.6928 59.2257C78.1385 62.7361 80.6668 66.3653 82.4452 70.3715C82.4488 70.3803 82.4524 70.389 82.456 70.3978Z" fill="#EC693C"/>
</g>
<g filter="url(#filter2_d)">
<path d="M42.8966 10.4997C43.9465 10.3258 44.6404 9.90522 46.0319 10.3314C45.1135 8.00713 42.9709 3.37066 41.4767 1.2216C41.3475 1.03895 41.1909 0.884186 41.0259 0.753123C41.0143 0.746617 41.0068 0.736392 40.9999 0.730815C40.3794 0.260475 39.5796 0.154974 39.0409 0.537939C39.0311 0.541192 39.0232 0.548628 39.0144 0.55374C38.3177 1.04314 38.2838 2.07956 38.8476 2.86686C40.0959 4.63668 42.0897 8.61365 42.8966 10.4997Z" fill="#EC693C"/>
</g>
<defs>
<filter id="filter0_d" x="101.92" y="36.6064" width="138.081" height="58.7677" filterUnits="userSpaceOnUse" color-interpolation-filters="sRGB">
<feFlood flood-opacity="0" result="BackgroundImageFix"/>
<feColorMatrix in="SourceAlpha" type="matrix" values="0 0 0 0 0 0 0 0 0 0 0 0 0 0 0 0 0 0 127 0"/>
<feOffset dy="4"/>
<feGaussianBlur stdDeviation="2"/>
<feColorMatrix type="matrix" values="0 0 0 0 0.554167 0 0 0 0 0.549549 0 0 0 0 0.549549 0 0 0 0.25 0"/>
<feBlend mode="normal" in2="BackgroundImageFix" result="effect1_dropShadow"/>
<feBlend mode="normal" in="SourceGraphic" in2="effect1_dropShadow" result="shape"/>
</filter>
<filter id="filter1_d" x="0.542725" y="16.8818" width="89.4339" height="109.319" filterUnits="userSpaceOnUse" color-interpolation-filters="sRGB">
<feFlood flood-opacity="0" result="BackgroundImageFix"/>
<feColorMatrix in="SourceAlpha" type="matrix" values="0 0 0 0 0 0 0 0 0 0 0 0 0 0 0 0 0 0 127 0"/>
<feOffset dy="4"/>
<feGaussianBlur stdDeviation="2"/>
<feColorMatrix type="matrix" values="0 0 0 0 0.554167 0 0 0 0 0.549549 0 0 0 0 0.549549 0 0 0 0.25 0"/>
<feBlend mode="normal" in2="BackgroundImageFix" result="effect1_dropShadow"/>
<feBlend mode="normal" in="SourceGraphic" in2="effect1_dropShadow" result="shape"/>
</filter>
<filter id="filter2_d" x="34.4553" y="0.304688" width="15.5765" height="18.195" filterUnits="userSpaceOnUse" color-interpolation-filters="sRGB">
<feFlood flood-opacity="0" result="BackgroundImageFix"/>
<feColorMatrix in="SourceAlpha" type="matrix" values="0 0 0 0 0 0 0 0 0 0 0 0 0 0 0 0 0 0 127 0"/>
<feOffset dy="4"/>
<feGaussianBlur stdDeviation="2"/>
<feColorMatrix type="matrix" values="0 0 0 0 0.554167 0 0 0 0 0.549549 0 0 0 0 0.549549 0 0 0 0.25 0"/>
<feBlend mode="normal" in2="BackgroundImageFix" result="effect1_dropShadow"/>
<feBlend mode="normal" in="SourceGraphic" in2="effect1_dropShadow" result="shape"/>
</filter>
</defs>
</svg>
