<svg width="186" height="241" viewBox="0 0 186 241" fill="none" xmlns="http://www.w3.org/2000/svg">
<g filter="url(#filter0_d)">
<path d="M173.53 138.679C173.584 138.772 173.636 138.871 173.683 138.972C184.499 162.294 183.265 189.051 170.541 207.135C160.572 221.293 142.897 230.123 120.766 231.997C115.275 232.461 109.725 232.6 104.311 232.409C101.897 232.324 99.8119 231.476 98.7336 230.142C97.901 229.111 97.6885 227.819 98.1174 226.406C98.4456 225.322 99.234 224.458 99.9972 223.622L99.998 223.621C100.466 223.11 100.91 222.626 101.227 222.114C102.107 220.711 102.674 219.502 103.021 218.315C103.855 215.432 103.995 212.628 103.427 210.206C101.945 203.887 97.6482 199.574 91.9326 198.669C91.0184 198.525 90.083 198.451 89.1537 198.451C83.1561 198.451 77.5844 201.491 74.9586 206.197C71.8546 211.755 72.4486 218.45 76.4729 223.251C77.8824 224.933 79.443 227.127 78.998 229.165C78.7533 230.282 77.9378 231.215 76.5766 231.936C75.4852 232.514 73.9971 232.796 72.0288 232.796C69.8591 232.796 67.4438 232.447 65.5036 232.166L65.4142 232.153C64.6512 232.043 63.9476 231.942 63.341 231.873C47.696 230.126 26.6053 224.357 14.9715 206.806C5.48325 192.491 2.58261 173.259 7.01361 154.042C9.21955 144.471 13.1391 135.584 18.6625 127.628C21.1395 124.058 23.8784 120.572 26.5307 117.195L26.6237 117.077C29.6542 113.223 32.7871 109.238 35.5347 105.13C37.9883 101.463 40.7158 97.0773 42.3418 92.3487C43.6235 88.6178 44.0564 84.9134 44.5145 80.9928L44.5228 80.9221C44.6469 79.8584 44.7714 78.7913 44.9152 77.7189C46.4073 66.5819 49.5677 57.7996 54.5776 50.8695C62.8194 39.469 76.0198 32.6675 89.8887 32.6675C95.3255 32.6675 100.683 33.7172 105.818 35.7727C114.486 39.2464 120.718 45.0393 123.366 52.0551C126.207 59.5825 126.276 67.7829 123.563 75.0897C119.473 86.0944 111.416 95.1111 103.626 103.765C100.565 107.165 97.3996 110.812 94.5271 114.397C88.153 122.353 83.8126 131.136 81.6268 139.977C79.3343 149.247 79.59 157.291 80.2484 167.323H97.0905C96.6938 156.379 97.1579 143.762 103.108 132.48C107.905 123.382 115.031 115.083 121.922 107.57C124.105 105.187 126.363 102.725 128.513 100.258C129.402 99.2396 130.222 98.1051 131.088 96.9049L131.091 96.9C132.383 95.1122 133.719 93.263 135.307 91.8243C136.273 90.9497 137.591 90.4673 139.02 90.4673C139.923 90.4673 140.828 90.6643 141.631 91.0382C142.934 91.641 143.725 93.0984 144.787 95.2497C146.286 98.2957 147.955 101.207 149.745 103.903C152.547 108.129 155.7 112.264 158.753 116.263L158.786 116.306C164.072 123.24 169.538 130.409 173.382 138.322C173.436 138.442 173.489 138.561 173.53 138.679Z" fill="#EC693C"/>
</g>
<g filter="url(#filter1_d)">
<path d="M87.5503 20.5049C89.8247 20.1638 91.3279 19.3385 94.3423 20.1748C92.3528 15.614 87.7114 6.51616 84.4745 2.2992C84.1946 1.9408 83.8553 1.63711 83.4979 1.37994C83.4727 1.36717 83.4566 1.3471 83.4415 1.33616C82.0974 0.413245 80.3647 0.206228 79.1978 0.957693C79.1766 0.964076 79.1595 0.978668 79.1404 0.9887C77.6311 1.94901 77.5576 3.9827 78.7789 5.52758C81.4832 9.00037 85.8025 16.8041 87.5503 20.5049Z" fill="#EC693C"/>
</g>
<defs>
<filter id="filter0_d" x="0.984131" y="32.6675" width="184.032" height="208.129" filterUnits="userSpaceOnUse" color-interpolation-filters="sRGB">
<feFlood flood-opacity="0" result="BackgroundImageFix"/>
<feColorMatrix in="SourceAlpha" type="matrix" values="0 0 0 0 0 0 0 0 0 0 0 0 0 0 0 0 0 0 127 0"/>
<feOffset dy="4"/>
<feGaussianBlur stdDeviation="2"/>
<feColorMatrix type="matrix" values="0 0 0 0 0.554167 0 0 0 0 0.549549 0 0 0 0 0.549549 0 0 0 0.25 0"/>
<feBlend mode="normal" in2="BackgroundImageFix" result="effect1_dropShadow"/>
<feBlend mode="normal" in="SourceGraphic" in2="effect1_dropShadow" result="shape"/>
</filter>
<filter id="filter1_d" x="73.9292" y="0.5" width="24.4131" height="28.0049" filterUnits="userSpaceOnUse" color-interpolation-filters="sRGB">
<feFlood flood-opacity="0" result="BackgroundImageFix"/>
<feColorMatrix in="SourceAlpha" type="matrix" values="0 0 0 0 0 0 0 0 0 0 0 0 0 0 0 0 0 0 127 0"/>
<feOffset dy="4"/>
<feGaussianBlur stdDeviation="2"/>
<feColorMatrix type="matrix" values="0 0 0 0 0.552941 0 0 0 0 0.54902 0 0 0 0 0.54902 0 0 0 0.25 0"/>
<feBlend mode="normal" in2="BackgroundImageFix" result="effect1_dropShadow"/>
<feBlend mode="normal" in="SourceGraphic" in2="effect1_dropShadow" result="shape"/>
</filter>
</defs>
</svg>
