<svg width="184" height="71" viewBox="0 0 184 71" fill="none" xmlns="http://www.w3.org/2000/svg">
<g filter="url(#filter0_d)">
<path d="M19.0316 21.0946C19.0316 21.74 18.8271 22.3215 18.4145 22.8434C18.0018 23.3653 17.3562 24.0276 16.4789 24.8223C15.5755 25.617 14.8816 26.3118 14.4032 26.909C13.9212 27.5027 13.682 28.1897 13.682 28.9608C13.682 29.6814 13.9348 30.2943 14.4429 30.805C14.9485 31.3135 15.6015 31.5694 16.3983 31.5694C17.3835 31.5694 18.0898 31.2899 18.5149 30.7321C18.9399 30.1708 19.1555 29.4581 19.1555 28.587C19.1555 28.1897 19.1159 27.8013 19.0316 27.432H26.6043C26.6303 27.6083 26.6576 27.8013 26.6873 28.0258C26.7146 28.2514 26.727 28.5231 26.727 28.8486C26.727 30.4133 26.2189 31.7939 25.204 32.9871C24.1904 34.1791 22.8867 35.0973 21.2956 35.7438C19.7057 36.3892 18.07 36.7148 16.3983 36.7148H14.8345C13.133 36.7148 11.5171 36.3713 9.99789 35.6888C8.47492 35.0041 7.25555 34.0545 6.33359 32.8378C5.41411 31.6177 4.95312 30.2281 4.95312 28.6633C4.95312 26.2523 6.12169 24.2903 8.45261 22.7727L10.1813 21.6514C10.7835 21.254 11.2296 20.915 11.5159 20.6311C11.8046 20.3426 11.962 20.0395 11.993 19.714V18.8957H19.0304V21.0946H19.0316ZM19.36 10.731V17.5521H11.4986V10.731H19.36Z" fill="#EC693C"/>
<path d="M45.5006 2.45415C47.295 3.26232 48.7151 4.47792 49.761 6.10773C50.8031 7.73641 51.3248 9.7299 51.3248 12.0927H43.2168V10.7884C43.2168 9.64236 42.8252 8.73878 42.0445 8.06418C41.2614 7.39295 40.2812 7.05621 39.1014 7.05621H38.897C37.7445 7.05621 36.7705 7.42213 35.9725 8.1405C35.1781 8.86112 34.7804 9.74338 34.7804 10.7884V17.9811C34.7804 19.0261 35.1781 19.9084 35.9725 20.6301C36.7705 21.3485 37.7445 21.7099 38.897 21.7099H39.4707C40.6517 21.7099 41.6331 21.3788 42.4126 20.7199C43.197 20.061 43.5886 19.1496 43.5886 17.9811V16.752H51.3248C51.3248 18.9363 50.823 20.8512 49.8229 22.4923C48.8204 24.1299 47.4424 25.386 45.6865 26.257C43.9306 27.1269 41.9417 27.5613 39.7198 27.5613H38.5686C36.1224 27.5613 33.9092 27.1146 31.9203 26.2188C29.9314 25.3254 28.3601 24.0334 27.2077 22.3407C26.0552 20.6537 25.4802 18.6647 25.4802 16.3782V12.4261C25.4802 10.2631 26.0627 8.33247 27.2275 6.6297C28.3936 4.92805 29.95 3.60577 31.8993 2.65841C33.8448 1.71779 35.9589 1.24414 38.2365 1.24414H39.3889C41.6653 1.24414 43.7026 1.64823 45.5006 2.45415Z" fill="#EC693C"/>
<path d="M74.8666 18.223C74.8666 18.6933 74.9918 19.0412 75.2347 19.2668C75.4825 19.4891 75.7861 19.6013 76.143 19.6013C76.661 19.6013 77.1443 19.4891 77.583 19.2668V23.2527C76.7056 23.8252 75.3202 24.1136 73.4267 24.1136C71.6695 24.1136 70.3262 23.8577 69.3956 23.347C68.4613 22.8396 67.7884 22.0899 67.3757 21.0954C66.911 21.7374 66.144 22.4041 65.0721 23.0866C64.0051 23.769 62.8217 24.1125 61.5366 24.1125H60.3792C59.254 24.1125 58.2193 23.8622 57.2738 23.3649C56.3271 22.8722 55.5798 22.192 55.0296 21.3356C54.4819 20.4769 54.2068 19.5396 54.2068 18.5204V4.68945H62.3545V16.619C62.3545 17.2408 62.5689 17.7684 62.9952 18.2017C63.4202 18.636 63.932 18.8538 64.5392 18.8538C65.1427 18.8538 65.6557 18.636 66.0795 18.2017C66.5058 17.7684 66.7202 17.2408 66.7202 16.619V4.68945H74.8679V18.223H74.8666Z" fill="#EC693C"/>
<path d="M98.3034 9.89343C99.9912 11.0125 100.836 12.4661 100.836 14.2531V22.1226C100.836 22.5929 100.96 22.9409 101.204 23.1665C101.452 23.3876 101.753 23.4999 102.111 23.4999C102.631 23.4999 103.113 23.3876 103.551 23.1665V27.1524C102.67 27.7237 101.287 28.011 99.3951 28.011C97.6367 28.011 96.2501 27.7439 95.2377 27.2085C94.2203 26.6719 93.592 25.9356 93.3454 24.9916C92.4656 25.9087 91.4978 26.6427 90.4432 27.1883C89.3874 27.7338 88.0887 28.0099 86.5546 28.0099C84.3575 28.0099 82.5756 27.6249 81.2038 26.856C79.8345 26.0838 79.1467 24.5673 79.1467 22.3078C79.1467 20.5938 79.6821 19.2705 80.7515 18.3366C81.8221 17.4049 83.3501 16.7595 85.3402 16.3981C87.3279 16.0366 89.8608 15.8582 92.9315 15.8582V14.775C92.9315 14.0824 92.6799 13.5347 92.1719 13.1351C91.6626 12.7389 91.0256 12.5424 90.2598 12.5424C89.6266 12.5424 89.0305 12.7063 88.4667 13.0408C87.9041 13.3786 87.6228 13.7951 87.6228 14.2924V14.4405H79.8047C79.7762 14.3698 79.7614 14.1913 79.7614 13.9186C79.7614 12.8511 80.1678 11.8858 80.9783 11.0305C81.7837 10.1729 82.9362 9.49048 84.4344 8.98089C85.9288 8.47129 87.6662 8.21649 89.639 8.21649H90.9984C94.1819 8.21649 96.6156 8.77322 98.3034 9.89343ZM88.9388 19.9013C88.0887 20.3379 87.6674 20.9396 87.6674 21.7096C87.6674 22.9027 88.489 23.4987 90.1359 23.4987C90.903 23.4987 91.5622 23.2563 92.1112 22.7725C92.6564 22.2865 92.9315 21.6613 92.9315 20.8902V19.2491C91.1223 19.2491 89.7914 19.4669 88.9388 19.9013ZM98.2848 0.910412L93.0988 6.20167H88.2424L91.9873 0.795898H98.1993L98.2848 0.910412Z" fill="#EC693C"/>
<path d="M123.489 5.4359C124.435 5.93315 125.181 6.60999 125.731 7.46867C126.279 8.32511 126.555 9.26462 126.555 10.2816V24.1125H118.406V12.183C118.406 11.5612 118.193 11.0336 117.767 10.5992C117.341 10.1626 116.828 9.94481 116.226 9.94481C115.62 9.94481 115.107 10.1626 114.682 10.5992C114.256 11.0336 114.041 11.5612 114.041 12.183V24.1125H105.894V5.06324H112.025L112.849 7.82112C114.36 5.73335 116.484 4.68945 119.229 4.68945H120.381C121.508 4.68945 122.544 4.93865 123.489 5.4359Z" fill="#EC693C"/>
<path d="M139.891 7.71161H144.828V13.0051H139.891V20.0486C139.891 21.0442 140.103 21.7199 140.528 22.0825C140.954 22.4405 141.524 22.6224 142.237 22.6224C142.566 22.6224 143 22.5797 143.533 22.4922C144.07 22.4035 144.488 22.3002 144.788 22.1734V26.3512C144.16 26.5992 143.279 26.7968 142.158 26.9472C141.032 27.0942 140.069 27.1694 139.274 27.1694C136.859 27.1694 135 26.7721 133.696 25.9774C132.393 25.1838 131.743 23.829 131.743 21.913V13.0051H129.441V7.71161H132.073L134.913 1.63574H139.894V7.71161H139.891Z" fill="#EC693C"/>
<path d="M164.601 5.71905C166.263 6.52497 167.565 7.64856 168.508 9.09204C169.457 10.5299 169.928 12.172 169.928 14.0129V14.7952C169.928 16.6574 169.456 18.3085 168.508 19.752C167.564 21.1932 166.263 22.3123 164.601 23.107C162.939 23.9017 161.08 24.2991 159.024 24.2991H157.708C155.648 24.2991 153.789 23.8973 152.131 23.088C150.469 22.282 149.167 21.1528 148.22 19.715C147.273 18.2715 146.8 16.6338 146.8 14.7941V14.0118C146.8 12.1709 147.273 10.5288 148.22 9.09091C149.168 7.64743 150.469 6.52384 152.131 5.71792C153.789 4.90638 155.648 4.50342 157.708 4.50342H159.024C161.08 4.50454 162.939 4.90751 164.601 5.71905ZM156.349 9.77672C155.799 10.2874 155.529 10.9059 155.529 11.6243V17.1782C155.529 17.9011 155.799 18.5128 156.349 19.0247C156.896 19.5331 157.571 19.7891 158.365 19.7891C159.164 19.7891 159.836 19.5331 160.385 19.0247C160.93 18.514 161.204 17.9011 161.204 17.1782V11.6243C161.204 10.9048 160.93 10.2874 160.385 9.77672C159.836 9.27162 159.164 9.01569 158.365 9.01569C157.571 9.01681 156.896 9.27162 156.349 9.77672Z" fill="#EC693C"/>
<path d="M41.577 58.848H51.1572V56.0598H50.3901L43.4085 48.6662L49.9787 41.964H51.0357V39.168H42.3911V41.964H44.3763L41.4369 45.9364H40.1172L37.1803 41.964H39.163V39.168H29.6708V41.964H30.4341L37.329 49.2701L30.6609 56.0598H29.6138V58.848H38.3427V56.0598H36.2075L39.3129 52.0807H40.6042L43.6984 56.0598H41.577V58.848Z" fill="#EC693C"/>
<path d="M80.2169 37.5648C81.5454 38.2629 82.5987 39.2159 83.3657 40.4169C84.134 41.6236 84.5182 42.9357 84.5182 44.3511V45.1705C84.5182 46.5871 84.1328 47.8981 83.3657 49.1047C82.5987 50.3102 81.5454 51.2587 80.2169 51.9558C78.8836 52.6517 77.4374 53.0008 75.8773 53.0008H69.4967V62.0949H60.8521V36.522H75.8773C77.4374 36.5209 78.8836 36.8688 80.2169 37.5648ZM69.4954 47.2965H73.2812C74.0507 47.2965 74.653 47.0652 75.0916 46.605C75.5315 46.1471 75.7509 45.6307 75.7509 45.0572V44.6115C75.7509 44.038 75.5377 43.5228 75.1114 43.0648C74.6864 42.608 74.078 42.3756 73.2799 42.3756H69.4942V47.2965H69.4954Z" fill="#EC693C"/>
<path d="M103.877 40.5093C105.398 41.2422 106.566 42.258 107.374 43.55C108.185 44.8408 108.589 46.3214 108.589 47.9837V50.296H94.8834V52.0863C94.8834 52.9304 95.1795 53.5792 95.7681 54.0248C96.358 54.4704 97.1164 54.696 98.0532 54.696C99.0136 54.696 99.7472 54.43 100.254 53.8946C100.762 53.3603 101.017 52.6206 101.017 51.6744H108.544C108.544 53.0943 108.139 54.3739 107.332 55.5143C106.522 56.6603 105.343 57.5594 103.792 58.2172C102.242 58.8761 100.41 59.2061 98.2986 59.2061H97.679C95.4844 59.2061 93.5178 58.839 91.7755 58.1072C90.0332 57.3753 88.6589 56.3034 87.6589 54.9026C86.6563 53.4984 86.1594 51.827 86.1594 49.8874V48.7324C86.1594 46.7928 86.6316 45.1214 87.5796 43.7184C88.5238 42.313 89.8473 41.2445 91.5524 40.5115C93.2489 39.7808 95.1994 39.4126 97.3927 39.4126H98.425C100.535 39.4104 102.356 39.7774 103.877 40.5093ZM95.7099 44.6826C95.1597 45.1933 94.8846 45.8106 94.8846 46.5301V47.0532H100.564V46.5301C100.564 45.8106 100.291 45.1944 99.741 44.6826C99.1933 44.1775 98.5204 43.9204 97.7261 43.9204C96.928 43.9216 96.2551 44.1775 95.7099 44.6826Z" fill="#EC693C"/>
<path d="M128.612 40.9555C129.615 41.867 130.113 43.1118 130.113 44.7045V45.3353L130.034 46.753L129.95 47.6835H123.281V46.7912C123.281 46.2703 123.111 45.827 122.77 45.4689C122.425 45.1041 122.022 44.9268 121.554 44.9268C121.061 44.9268 120.644 45.1041 120.302 45.4689C119.957 45.8259 119.785 46.2703 119.785 46.7912V59.0181H111.842V39.9689H117.933L118.838 42.7267C119.004 42.4282 119.32 42.032 119.785 41.5347C120.251 41.0375 120.884 40.5918 121.677 40.1911C122.475 39.796 123.38 39.5962 124.393 39.5962C126.205 39.5951 127.613 40.0508 128.612 40.9555Z" fill="#EC693C"/>
<path d="M150.752 41.0881C152.441 42.2072 153.284 43.6608 153.284 45.4488V53.3184C153.284 53.7876 153.41 54.1367 153.654 54.3612C153.902 54.5834 154.203 54.6956 154.56 54.6956C155.08 54.6956 155.562 54.5834 156.001 54.3612V58.3481C155.119 58.9195 153.736 59.2068 151.845 59.2068C150.086 59.2068 148.701 58.9396 147.689 58.4031C146.671 57.8688 146.04 57.1314 145.793 56.1874C144.918 57.1044 143.948 57.8385 142.893 58.3852C141.838 58.9307 140.54 59.2057 139.003 59.2057C136.807 59.2057 135.027 58.8207 133.652 58.0495C132.283 57.2784 131.596 55.762 131.596 53.5036C131.596 51.7885 132.134 50.4662 133.201 49.5323C134.272 48.6007 135.799 47.9542 137.789 47.5927C139.779 47.2313 142.309 47.0539 145.381 47.0539V45.9696C145.381 45.2793 145.13 44.7305 144.622 44.332C144.111 43.9346 143.475 43.7371 142.71 43.7371C142.076 43.7371 141.48 43.901 140.918 44.2377C140.355 44.5744 140.073 44.9909 140.073 45.4881V45.6363H132.256C132.226 45.5633 132.214 45.3871 132.214 45.1143C132.214 44.0469 132.618 43.0816 133.428 42.2263C134.233 41.3664 135.387 40.6851 136.883 40.1755C138.377 39.6671 140.116 39.4111 142.089 39.4111H143.449C146.632 39.4111 149.067 39.969 150.752 41.0881ZM141.391 51.097C140.54 51.5337 140.118 52.1342 140.118 52.9042C140.118 54.0985 140.937 54.6945 142.587 54.6945C143.353 54.6945 144.013 54.4509 144.561 53.9683C145.106 53.4823 145.382 52.8582 145.382 52.0859V50.4437C143.573 50.4437 142.241 50.6615 141.391 51.097Z" fill="#EC693C"/>
<path d="M174.007 37.3588C175.531 38.0424 176.75 38.9919 177.67 40.2121C178.589 41.4277 179.047 42.8207 179.047 44.3854C179.047 45.7278 178.725 46.8716 178.079 47.8156C177.435 48.7607 176.579 49.5801 175.508 50.2771L173.823 51.394C173.162 51.8418 172.699 52.1943 172.425 52.4547C172.148 52.7151 172.011 53.0069 172.011 53.3313V54.1496H164.973V51.9519C164.973 51.3076 165.178 50.7183 165.591 50.1986C166.001 49.6755 166.646 49.02 167.526 48.2253C168.43 47.4306 169.124 46.7335 169.602 46.1386C170.08 45.5381 170.323 44.859 170.323 44.0879C170.323 43.365 170.068 42.7511 169.562 42.2403C169.053 41.7341 168.401 41.4782 167.607 41.4782C166.591 41.4782 165.892 41.7633 165.509 42.3346C165.123 42.9048 164.929 43.6636 164.929 44.6087V45.1318C164.929 45.3282 164.949 45.4887 164.973 45.6178H157.402C157.375 45.4416 157.344 45.2407 157.319 45.0173C157.292 44.7951 157.277 44.5223 157.277 44.1979C157.277 42.6321 157.784 41.2548 158.801 40.0594C159.816 38.8674 161.121 37.9481 162.709 37.3026C164.301 36.6572 165.931 36.334 167.607 36.334H169.169C170.872 36.334 172.482 36.6741 174.007 37.3588ZM172.627 55.4595V62.2773H164.767V55.4595H172.627Z" fill="#EC693C"/>
</g>
<defs>
<filter id="filter0_d" x="0.953125" y="0.795898" width="182.094" height="69.4814" filterUnits="userSpaceOnUse" color-interpolation-filters="sRGB">
<feFlood flood-opacity="0" result="BackgroundImageFix"/>
<feColorMatrix in="SourceAlpha" type="matrix" values="0 0 0 0 0 0 0 0 0 0 0 0 0 0 0 0 0 0 127 0"/>
<feOffset dy="4"/>
<feGaussianBlur stdDeviation="2"/>
<feColorMatrix type="matrix" values="0 0 0 0 0.554167 0 0 0 0 0.549549 0 0 0 0 0.549549 0 0 0 0.25 0"/>
<feBlend mode="normal" in2="BackgroundImageFix" result="effect1_dropShadow"/>
<feBlend mode="normal" in="SourceGraphic" in2="effect1_dropShadow" result="shape"/>
</filter>
</defs>
</svg>
